<?xml version="1.0" encoding="UTF-8" standalone="no"?>
<svg xmlns="http://www.w3.org/2000/svg" width="200" height="60" viewBox="0 0 200 60">
  <g fill="#E51636">
    <path d="M30,10 C13.4,10 0,20.7 0,30 C0,39.3 13.4,50 30,50 C46.6,50 60,39.3 60,30 C60,20.7 46.6,10 30,10 Z M30,45 C16.2,45 5,38.3 5,30 C5,21.7 16.2,15 30,15 C43.8,15 55,21.7 55,30 C55,38.3 43.8,45 30,45 Z"/>
    <path d="M30,20 C21.7,20 15,24.5 15,30 C15,35.5 21.7,40 30,40 C38.3,40 45,35.5 45,30 C45,24.5 38.3,20 30,20 Z M30,35 C24.5,35 20,32.8 20,30 C20,27.2 24.5,25 30,25 C35.5,25 40,27.2 40,30 C40,32.8 35.5,35 30,35 Z"/>
    <path d="M70,15 L70,45 L75,45 L75,35 L85,35 L85,30 L75,30 L75,20 L90,20 L90,15 L70,15 Z"/>
    <path d="M95,15 L95,45 L115,45 L115,40 L100,40 L100,15 L95,15 Z"/>
    <path d="M120,15 L120,45 L140,45 L140,40 L125,40 L125,32.5 L135,32.5 L135,27.5 L125,27.5 L125,20 L140,20 L140,15 L120,15 Z"/>
    <path d="M145,15 L145,45 L150,45 L150,35 L155,35 L160,45 L165,45 L160,35 C162.5,35 165,32.5 165,30 L165,20 C165,17.5 162.5,15 160,15 L145,15 Z M150,20 L160,20 L160,30 L150,30 L150,20 Z"/>
    <path d="M170,15 L170,45 L175,45 L175,32.5 L185,32.5 L185,27.5 L175,27.5 L175,20 L190,20 L190,15 L170,15 Z"/>
    <path d="M195,15 L195,45 L200,45 L200,15 L195,15 Z"/>
  </g>
</svg>
