<?xml version="1.0" encoding="UTF-8" standalone="no"?>
<svg xmlns="http://www.w3.org/2000/svg" width="200" height="60" viewBox="0 0 200 60">
  <g fill="#E51636">
    <path d="M10,15 L10,45 L20,45 L20,25 L30,25 L30,15 L10,15 Z"/>
    <path d="M35,15 L35,45 L45,45 L45,35 L55,35 C60,35 65,30 65,25 L65,15 L35,15 Z M45,25 L55,25 L55,25 L45,25 Z"/>
    <path d="M70,15 L70,45 L100,45 L100,35 L80,35 L80,15 L70,15 Z"/>
    <path d="M105,15 L105,45 L115,45 L115,35 L125,35 L125,45 L135,45 L135,15 L125,15 L125,25 L115,25 L115,15 L105,15 Z"/>
    <path d="M140,15 L140,45 L170,45 L170,35 L150,35 L150,15 L140,15 Z"/>
    <path d="M175,15 L175,45 L185,45 L185,15 L175,15 Z"/>
    <path d="M190,15 L190,45 L200,45 L200,15 L190,15 Z"/>
  </g>
</svg>
